<svg xmlns="http://www.w3.org/2000/svg" width="240" height="240" viewBox="0 0 240 240" fill="none" stroke-linecap="round" stroke-linejoin="round" stroke-width="4">
  <g opacity="0.5">
    <path d="M18 42c8-11 17 11 25 0s17 11 25 0" stroke="#c9b6f2"/>
    <path d="M176 22l18 31h-36z" stroke="#8fd9c4"/>
    <circle cx="206" cy="122" r="9" fill="#f7b6d2" stroke="none"/>
    <rect x="38" y="150" width="22" height="22" rx="3" transform="rotate(20 49 161)" stroke="#ffcf6e"/>
    <path d="M112 196c8-10 16 10 24 0s16 10 24 0" stroke="#9fcdf2"/>
    <path d="M96 34a14 14 0 0 1 28 0" stroke="#f7b6d2"/>
    <path d="M22 98l11 11m0-11l-11 11" stroke="#9fcdf2"/>
    <circle cx="214" cy="208" r="6" stroke="#c9b6f2" stroke-width="3"/>
    <path d="M160 142v14m-7-7h14" stroke="#ffcf6e"/>
    <g fill="#f7b6d2" stroke="none">
      <circle cx="104" cy="92" r="2.2"/><circle cx="113" cy="92" r="2.2"/><circle cx="122" cy="92" r="2.2"/><circle cx="131" cy="92" r="2.2"/>
      <circle cx="104" cy="101" r="2.2"/><circle cx="113" cy="101" r="2.2"/><circle cx="122" cy="101" r="2.2"/><circle cx="131" cy="101" r="2.2"/>
      <circle cx="104" cy="110" r="2.2"/><circle cx="113" cy="110" r="2.2"/><circle cx="122" cy="110" r="2.2"/><circle cx="131" cy="110" r="2.2"/>
    </g>
    <path d="M60 222l12-18 12 18" stroke="#8fd9c4"/>
  </g>
</svg>
